<?xml version="1.0" encoding="UTF-8"?>
<svg id="_レイヤー_1" data-name="レイヤー 1" xmlns="http://www.w3.org/2000/svg" viewBox="0 0 7680 4320">
  <defs>
    <style>
      .cls-1 {
        fill: #f6f5fc;
      }
    </style>
  </defs>
  <path class="cls-1" d="M602.38,2281.03l186.59-537.83h214.03l-290.87,768.33h-219.52l-290.87-768.33h214.03l186.6,537.83Z"/>
  <path class="cls-1" d="M1450.82,2511.53h-395.14v-153.67h98.78v-461h-98.78v-153.67h395.14v153.67h-98.79v461h98.79v153.67Z"/>
  <path class="cls-1" d="M1904.13,2281.03l186.59-537.83h214.03l-290.86,768.33h-219.52l-290.87-768.33h214.03l186.6,537.83Z"/>
  <path class="cls-1" d="M2752.57,2511.53h-395.14v-153.67h98.78v-461h-98.78v-153.67h395.14v153.67h-98.78v461h98.78v153.67Z"/>
  <path class="cls-1" d="M3339.33,2341.28c121.31-86.95,179.12-237.85,146.95-383.6l-31.22-141.44c-2.66-3.02-5.4-5.97-8.24-8.82-42.81-42.81-105.56-64.21-188.24-64.21h-428.07v768.33h271.29l237.53-170.25ZM3028.07,1896.87h186.59c65.86,0,98.78,32.93,98.78,98.78v263.43c0,65.86-32.93,98.78-98.78,98.78h-186.59v-461Z"/>
  <path class="cls-1" d="M3964.3,1972.6v-9.88c0-43.9,21.95-65.86,65.86-65.86h217.31c43.88-23.89,88.52-48.01,133.93-72.37v-81.3h-395.14c-76.83,0-132.64,17.39-167.38,52.14-15.2,15.2-27.08,34.43-35.63,57.67,47.9,57.84,111.28,98.86,181.06,119.59Z"/>
  <path class="cls-1" d="M4122.77,2522.2c121.77-.36,258.61-.92,258.61-.92v-148.18s-108.49-1.32-207.17-2.5c-27.84,46.11-45.45,97.86-51.44,151.6Z"/>
  <path class="cls-1" d="M4965.31,2013.54v289.44c0,43.9-21.95,65.86-65.86,65.86h-186.59c-43.9,0-65.86-21.95-65.86-65.86v-173.45c-66.85,24.77-132.73,49.44-197.57,73.95v99.5c0,76.83,17.37,132.64,52.14,167.38,34.74,34.77,90.55,52.14,167.38,52.14h274.4c76.83,0,132.62-17.37,167.39-52.14,34.74-34.74,52.13-90.55,52.13-167.38v-351.23c0-2.77-.07-5.45-.12-8.17-66.55,23.32-132.38,46.65-197.45,69.96Z"/>
  <path class="cls-1" d="M5659,2149.32l-171.56-317.39c-86.54,29.19-172.08,58.51-256.51,87.86v591.74h197.57v-428.07l153.67,274.4h153.67l153.67-274.4v428.07h197.57v-768.33h-208.55l-219.52,406.12Z"/>
  <path class="cls-1" d="M6758.8,2511.53h-609.17v-768.33h609.17v153.67h-411.61v148.17h323.8v153.67h-323.8v159.16h411.61v153.67Z"/>
  <path class="cls-1" d="M7250.52,2511.53h-197.57v-614.66h-230.5v-153.67h596.38v153.67h-168.31v614.66Z"/>
  <rect class="cls-1" x="2147.15" y="1743.2" width="515.98" height="153.67"/>
  <rect class="cls-1" x="893.13" y="1743.2" width="222.05" height="153.67"/>
  <polyline class="cls-1" points="7501.75 1743.2 7418.84 1743.2 7418.84 1896.87"/>
  <path class="cls-1" d="M4898.42,1814.29l-395.4,283.41c705.89-283.01,1605.66-608.28,2323.13-750.19h-1374.09c-451.21,216.02-825.2,417.68-1126.71,593.27l573.07-126.49Z"/>
  <path class="cls-1" d="M3532.82,1684.38l189.72,264.69c86.95,121.31,237.85,179.12,383.6,146.95l318.01-70.19-264.69,189.72c-121.31,86.95-179.12,237.85-146.95,383.6l70.19,318.01-189.72-264.69c-86.95-121.31-237.85-179.12-383.6-146.95l-318.01,70.19,264.69-189.72c121.31-86.95,179.12-237.85,146.95-383.6l-70.19-318.01Z"/>
</svg>